<?xml version="1.0" encoding="utf-8"?>
<!-- Generator: Adobe Illustrator 19.2.1, SVG Export Plug-In . SVG Version: 6.00 Build 0)  -->
<svg version="1.1" id="_x32_2e2c162-1863-4b35-9929-643f5f59dd09"
	 xmlns="http://www.w3.org/2000/svg" xmlns:xlink="http://www.w3.org/1999/xlink" x="0px" y="0px" viewBox="0 0 376.3 32"
	 style="enable-background:new 0 0 376.3 32;" xml:space="preserve">
<style type="text/css">
	.st0{fill:#FFFFFF;}
</style>
<title>logo</title>
<path class="st0" d="M22.4,31.5l-1.5-5.8H10.8l-1.6,5.8H0L10.1,0.4h11.2l10.2,31.1H22.4z M19.1,18.8l-1.3-5.1
	c-0.3-1.1-0.7-2.6-1.1-4.4s-0.7-3.1-0.9-3.9C15.6,6.2,15.4,7.4,15,9c-0.4,1.6-1.2,4.9-2.5,9.8H19.1z M34.8,31.5v-31h8.4v24.2h11.9
	v6.8H34.8z M60.1,31.5v-31h8.4v24.2h11.9v6.8C80.4,31.5,60.1,31.5,60.1,31.5z M94.5,31.5h-2.2V2.5H82.2v-2h22.3v2H94.5
	C94.5,2.5,94.5,31.5,94.5,31.5z M131.6,31.5h-2.2V16.2h-18.1v15.2h-2.2v-31h2.2v13.8h18.1V0.5h2.2V31.5L131.6,31.5z M157.3,31.5
	h-16.9v-31h16.9v2h-14.8v11.7h13.9v2h-13.9v13.3h14.8V31.5L157.3,31.5z M171.5,31.5h-8.2v-31h18.3v6.7h-10.1v5.9h9.3v6.7h-9.3
	C171.5,19.8,171.5,31.5,171.5,31.5z M215.6,15.9c0,5.2-1.3,9.2-3.8,11.9s-6.3,4.1-11.2,4.1c-4.9,0-8.6-1.4-11.2-4.1
	s-3.9-6.7-3.9-11.9c0-5.2,1.3-9.1,3.9-11.8S195.7,0,200.6,0c4.9,0,8.7,1.3,11.2,4S215.6,10.6,215.6,15.9z M194.3,15.9
	c0,6,2.1,9,6.2,9c1.8,0.1,3.6-0.7,4.7-2.2c1-1.5,1.5-3.7,1.5-6.8s-0.5-5.4-1.6-6.9c-1.1-1.5-2.8-2.3-4.6-2.2
	C196.4,6.9,194.3,9.9,194.3,15.9L194.3,15.9z M250.2,15.9c0,5.2-1.3,9.2-3.8,11.9s-6.3,4.1-11.2,4.1c-4.9,0-8.6-1.4-11.2-4.1
	c-2.6-2.7-3.9-6.7-3.9-11.9c0-5.2,1.3-9.1,3.9-11.8c2.6-2.7,6.3-4.1,11.2-4.1c4.9,0,8.7,1.3,11.2,4S250.2,10.6,250.2,15.9z
	 M228.9,15.9c0,6,2.1,9,6.2,9c1.8,0.1,3.6-0.7,4.7-2.2c1-1.5,1.5-3.7,1.5-6.8c0-3.1-0.5-5.4-1.6-6.9c-1.1-1.5-2.8-2.3-4.6-2.2
	C231,6.9,228.9,9.9,228.9,15.9L228.9,15.9z M282.1,15.3c0,5.2-1.4,9.2-4.3,12c-2.8,2.8-6.8,4.2-12,4.2h-10v-31h10.7
	c5,0,8.8,1.2,11.5,3.8S282,10.5,282.1,15.3L282.1,15.3z M273.4,15.6c0-2.8-0.6-4.9-1.7-6.3c-1.3-1.4-3.2-2.2-5.1-2.1h-2.4v17.4h1.8
	c2.5,0,4.4-0.7,5.6-2.2S273.4,18.7,273.4,15.6z M307.9,22.1c0,1.8-0.5,3.6-1.5,5.1c-1,1.5-2.5,2.8-4.2,3.5c-2,0.9-4.2,1.3-6.5,1.2
	c-1.7,0-3.5-0.1-5.2-0.4c-1.5-0.3-3-0.8-4.4-1.5v-7.5c1.6,0.8,3.3,1.5,5,1.9c1.5,0.4,3.1,0.7,4.8,0.7c1,0.1,1.9-0.2,2.7-0.6
	c0.5-0.4,0.9-1,0.9-1.7c0-0.4-0.1-0.8-0.4-1.1c-0.3-0.4-0.7-0.7-1.1-1c-0.5-0.3-1.9-1-4.1-2c-1.6-0.7-3.2-1.6-4.6-2.7
	c-1-0.8-1.7-1.8-2.2-3c-0.5-1.3-0.8-2.6-0.7-4c-0.1-2.6,1-5.1,3.1-6.7c2.1-1.6,4.9-2.3,8.6-2.3c3.4,0,6.7,0.8,9.8,2.2l-2.6,6.5
	c-2.3-1.2-4.9-1.9-7.5-2c-0.8-0.1-1.7,0.1-2.4,0.6c-0.5,0.3-0.7,0.9-0.7,1.4c0,0.7,0.4,1.3,0.9,1.6c1.6,1,3.3,1.9,5.1,2.7
	c2.1,0.8,4,2.1,5.6,3.9C307.4,18.4,308,20.2,307.9,22.1L307.9,22.1z M319.2,20.5h-7l-1.1-20h9.1L319.2,20.5z M311.2,28
	c-0.1-1.1,0.3-2.2,1.1-3c0.9-0.8,2.1-1.2,3.3-1.1c1.2-0.1,2.4,0.3,3.3,1.1c0.8,0.8,1.2,1.9,1.1,3c0.1,1.1-0.4,2.2-1.2,3
	c-0.9,0.7-2,1.1-3.2,1c-1.2,0.1-2.4-0.3-3.3-1.1C311.6,30.2,311.1,29.1,311.2,28L311.2,28z M331.2,12.5c2.2,1.1,4.6,1.7,6.8,2.8
	c2.1,1.1,4.3,2.1,6.5,3c5.3,2,11.2,1.7,16.3-0.7c2.1-1.2,4-2.7,5.6-4.4c1.8-1.8,3.8-3.3,4.2-5.9c0.2-1.1-0.3-2.1,0.2-3.1
	c0.3-0.4,0.5-0.7,0.7-1.1c0.2-0.5-0.1-1,0.4-1.4s0.5,0.3,0.9,0.2c0.8-0.3,1.4-1.1,1.5-2c0.9,0.2,1.6,0.9,2,1.7c0,1-0.1,1.9-0.4,2.9
	c-0.2,0.7-0.5,1.3-0.9,1.8c-0.4,1-0.5,2.1-0.4,3.2c0.2,2.5,1.6,4.7,1.4,7.2c-0.3,3.5-2.6,6.6-5.2,8.8c-5.1,4.3-11.6,6.7-18.3,6.6
	c-7.1-0.2-15.3-2.3-20.3-7.6c-1.3-1.5-2.4-3.2-3.1-5c-0.7-1.3-1.1-2.8-1-4.4C328.3,13.7,329.7,11.8,331.2,12.5L331.2,12.5z"/>
</svg>
